<?xml version="1.0" encoding="UTF-8"?>
<svg width="1600" height="1000" xmlns="http://www.w3.org/2000/svg">
  <defs>
    <style>
      .title { font-family: Arial, sans-serif; font-size: 24px; font-weight: bold; fill: #2c3e50; }
      .section-title { font-family: Arial, sans-serif; font-size: 18px; font-weight: bold; fill: #34495e; }
      .flow-text { font-family: Arial, sans-serif; font-size: 14px; fill: #2c3e50; font-weight: bold; }
      .desc-text { font-family: Arial, sans-serif; font-size: 12px; fill: #2c3e50; }
      .small-text { font-family: Arial, sans-serif; font-size: 10px; fill: #7f8c8d; }
      
      .student-flow { fill: #3498db; stroke: #2980b9; stroke-width: 3; }
      .staff-flow { fill: #9b59b6; stroke: #8e44ad; stroke-width: 3; }
      .shared-flow { fill: #e74c3c; stroke: #c0392b; stroke-width: 3; }
      
      .user-box { fill: #f39c12; stroke: #e67e22; stroke-width: 2; }
      .channel-box { fill: #ecf0f1; stroke: #bdc3c7; stroke-width: 2; }
      .action-box { fill: #2ecc71; stroke: #27ae60; stroke-width: 2; }
      .decision-diamond { fill: #f1c40f; stroke: #f39c12; stroke-width: 2; }
      
      .arrow { fill: #2c3e50; }
      .highlight-arrow { fill: #e74c3c; stroke: #c0392b; stroke-width: 2; }
    </style>
    
    <marker id="arrowhead" markerWidth="10" markerHeight="7" refX="10" refY="3.5" orient="auto">
      <polygon points="0 0, 10 3.5, 0 7" class="arrow"/>
    </marker>
    
    <marker id="highlight-arrowhead" markerWidth="12" markerHeight="8" refX="12" refY="4" orient="auto">
      <polygon points="0 0, 12 4, 0 8" class="highlight-arrow"/>
    </marker>
  </defs>
  
  <!-- Background -->
  <rect width="1600" height="1000" fill="#f8f9fa"/>
  
  <!-- Title -->
  <text x="800" y="30" text-anchor="middle" class="title">MathSchool Discord User Access Flow &amp; Interaction Patterns</text>
  
  <!-- Legend -->
  <rect x="50" y="50" width="400" height="100" class="channel-box"/>
  <text x="60" y="75" class="section-title">Flow Types:</text>
  <line x1="60" y1="85" x2="100" y2="85" class="student-flow" marker-end="url(#arrowhead)"/>
  <text x="110" y="90" class="desc-text">Student Access Flow</text>
  <line x1="60" y1="105" x2="100" y2="105" class="staff-flow" marker-end="url(#arrowhead)"/>
  <text x="110" y="110" class="desc-text">Staff Access Flow</text>
  <line x1="60" y1="125" x2="100" y2="125" class="shared-flow" marker-end="url(#highlight-arrowhead)"/>
  <text x="110" y="130" class="desc-text">Key Shared Homework Flow</text>
  
  <!-- User Entry Points -->
  <text x="50" y="190" class="section-title">User Entry Points</text>
  
  <!-- Student Entry -->
  <rect x="50" y="210" width="150" height="60" class="user-box"/>
  <text x="125" y="235" text-anchor="middle" class="flow-text">New Student</text>
  <text x="125" y="255" text-anchor="middle" class="desc-text">Gets semester role</text>
  <text x="125" y="265" text-anchor="middle" class="small-text">(e.g., 2025-CS1)</text>
  
  <!-- Staff Entry -->
  <rect x="250" y="210" width="150" height="60" class="user-box"/>
  <text x="325" y="235" text-anchor="middle" class="flow-text">Staff Member</text>
  <text x="325" y="255" text-anchor="middle" class="desc-text">Gets staff role</text>
  <text x="325" y="265" text-anchor="middle" class="small-text">(Admin/Teacher/TA/Tutor)</text>
  
  <!-- Main Navigation Flow -->
  <text x="500" y="190" class="section-title">Primary Navigation Paths</text>
  
  <!-- Global Community Access -->
  <rect x="500" y="210" width="200" height="60" class="channel-box"/>
  <text x="600" y="235" text-anchor="middle" class="flow-text">Global Community</text>
  <text x="600" y="250" text-anchor="middle" class="desc-text">#announcements, #general-chat</text>
  <text x="600" y="265" text-anchor="middle" class="small-text">Available to all users</text>
  
  <!-- Arrows from entry points to global community -->
  <line x1="200" y1="240" x2="500" y2="240" class="student-flow" marker-end="url(#arrowhead)"/>
  <line x1="400" y1="240" x2="500" y2="240" class="staff-flow" marker-end="url(#arrowhead)"/>
  
  <!-- Decision Point: What do you need? -->
  <polygon points="600,320 650,350 600,380 550,350" class="decision-diamond"/>
  <text x="600" y="345" text-anchor="middle" class="desc-text">What do you</text>
  <text x="600" y="360" text-anchor="middle" class="desc-text">need help with?</text>
  
  <!-- Arrow from global community to decision -->
  <line x1="600" y1="270" x2="600" y2="320" class="student-flow" marker-end="url(#arrowhead)"/>
  
  <!-- Homework Help Flow (KEY FEATURE) -->
  <text x="50" y="450" class="section-title">🔥 Key Feature: Shared Homework Help Flow</text>
  
  <!-- Homework question decision -->
  <rect x="50" y="480" width="180" height="80" class="action-box"/>
  <text x="140" y="505" text-anchor="middle" class="flow-text">Student has</text>
  <text x="140" y="520" text-anchor="middle" class="flow-text">homework question</text>
  <text x="140" y="540" text-anchor="middle" class="desc-text">Any level: L1, CS4,</text>
  <text x="140" y="555" text-anchor="middle" class="desc-text">AMC12, etc.</text>
  
  <!-- Arrow from decision diamond to homework help -->
  <line x1="570" y1="365" x2="230" y2="480" class="shared-flow" marker-end="url(#highlight-arrowhead)"/>
  <text x="350" y="415" class="desc-text" fill="#e74c3c" font-weight="bold">Homework Help Path</text>
  
  <!-- Forum selection -->
  <polygon points="300,520 350,500 400,520 350,540" class="decision-diamond"/>
  <text x="350" y="515" text-anchor="middle" class="small-text">Math or</text>
  <text x="350" y="530" text-anchor="middle" class="small-text">CS topic?</text>
  
  <line x1="230" y1="520" x2="300" y2="520" class="shared-flow" marker-end="url(#highlight-arrowhead)"/>
  
  <!-- Math Forum -->
  <rect x="280" y="580" width="200" height="80" class="channel-box"/>
  <text x="380" y="605" text-anchor="middle" class="flow-text">#math-homework-help</text>
  <text x="380" y="620" text-anchor="middle" class="desc-text">Forum with tags:</text>
  <text x="380" y="635" text-anchor="middle" class="small-text">L1, L2, FunMath1, FunMath2,</text>
  <text x="380" y="650" text-anchor="middle" class="small-text">AMC8, AMC10, AMC12, AIME</text>
  
  <!-- CS Forum -->
  <rect x="520" y="580" width="200" height="80" class="channel-box"/>
  <text x="620" y="605" text-anchor="middle" class="flow-text">#cs-homework-help</text>
  <text x="620" y="620" text-anchor="middle" class="desc-text">Forum with tags:</text>
  <text x="620" y="635" text-anchor="middle" class="small-text">CS1, CS2, CS3, CS4</text>
  
  <!-- Arrows to forums -->
  <line x1="335" y1="535" x2="360" y2="580" class="shared-flow" marker-end="url(#highlight-arrowhead)"/>
  <text x="320" y="565" class="small-text" fill="#e74c3c">Math</text>
  
  <line x1="365" y1="535" x2="640" y2="580" class="shared-flow" marker-end="url(#highlight-arrowhead)"/>
  <text x="500" y="565" class="small-text" fill="#e74c3c">CS</text>
  
  <!-- Cross-level help illustration -->
  <rect x="800" y="480" width="300" height="200" class="action-box"/>
  <text x="950" y="505" text-anchor="middle" class="flow-text">Cross-Level Peer Learning</text>
  <text x="820" y="530" class="desc-text">✅ AMC12 student helps L1 student</text>
  <text x="820" y="550" class="desc-text">✅ CS4 student explains CS1 concepts</text>
  <text x="820" y="570" class="desc-text">✅ L2 student learns from AMC10 approach</text>
  <text x="820" y="590" class="desc-text">✅ Everyone benefits from active discussions</text>
  <text x="820" y="620" class="desc-text">🔥 This is WHY homework help is shared!</text>
  <text x="820" y="645" class="desc-text">Instead of 20+ quiet class channels,</text>
  <text x="820" y="665" class="desc-text">we have 2 active community forums.</text>
  
  <!-- Arrows from forums to cross-level help -->
  <line x1="480" y1="620" x2="800" y2="580" class="shared-flow" marker-end="url(#highlight-arrowhead)"/>
  <line x1="720" y1="620" x2="800" y2="580" class="shared-flow" marker-end="url(#highlight-arrowhead)"/>
  
  <!-- Classroom Access Flow -->
  <text x="1200" y="190" class="section-title">Private Classroom Access</text>
  
  <!-- Class-specific path -->
  <rect x="1200" y="210" width="180" height="60" class="action-box"/>
  <text x="1290" y="235" text-anchor="middle" class="flow-text">Student needs</text>
  <text x="1290" y="250" text-anchor="middle" class="flow-text">class logistics</text>
  <text x="1290" y="265" text-anchor="middle" class="small-text">Assignments, coordination</text>
  
  <!-- Arrow from decision diamond to classroom -->
  <line x1="630" y1="365" x2="1290" y2="210" class="student-flow" marker-end="url(#arrowhead)"/>
  <text x="900" y="280" class="desc-text">Class Logistics Path</text>
  
  <!-- Role-based access -->
  <polygon points="1290,320 1340,300 1390,320 1340,340" class="decision-diamond"/>
  <text x="1340" y="315" text-anchor="middle" class="small-text">Which</text>
  <text x="1340" y="330" text-anchor="middle" class="small-text">class?</text>
  
  <line x1="1290" y1="270" x2="1290" y2="300" class="student-flow" marker-end="url(#arrowhead)"/>
  <line x1="1290" y1="300" x2="1340" y2="300" class="student-flow" marker-end="url(#arrowhead)"/>
  
  <!-- Example classrooms -->
  <rect x="1200" y="380" width="120" height="50" class="channel-box"/>
  <text x="1260" y="400" text-anchor="middle" class="desc-text">#cs1-classroom</text>
  <text x="1260" y="415" text-anchor="middle" class="small-text">2025-CS1 role</text>
  
  <rect x="1340" y="380" width="120" height="50" class="channel-box"/>
  <text x="1400" y="400" text-anchor="middle" class="desc-text">#amc10-classroom</text>
  <text x="1400" y="415" text-anchor="middle" class="small-text">2025-AMC10 role</text>
  
  <rect x="1480" y="380" width="120" height="50" class="channel-box"/>
  <text x="1540" y="400" text-anchor="middle" class="desc-text">#l2-classroom</text>
  <text x="1540" y="415" text-anchor="middle" class="small-text">2025-L2 role</text>
  
  <!-- Arrows to specific classrooms -->
  <line x1="1320" y1="335" x2="1260" y2="380" class="student-flow" marker-end="url(#arrowhead)"/>
  <line x1="1340" y1="340" x2="1400" y2="380" class="student-flow" marker-end="url(#arrowhead)"/>
  <line x1="1360" y1="335" x2="1540" y2="380" class="student-flow" marker-end="url(#arrowhead)"/>
  
  <!-- Staff Access Flow -->
  <text x="50" y="750" class="section-title">Staff Access Patterns</text>
  
  <!-- Staff workflow -->
  <rect x="50" y="770" width="150" height="60" class="user-box"/>
  <text x="125" y="795" text-anchor="middle" class="flow-text">Staff Member</text>
  <text x="125" y="815" text-anchor="middle" class="desc-text">Has full access</text>
  
  <!-- Multiple staff paths -->
  <rect x="250" y="730" width="150" height="40" class="channel-box"/>
  <text x="325" y="755" text-anchor="middle" class="desc-text">Monitor homework forums</text>
  
  <rect x="250" y="780" width="150" height="40" class="channel-box"/>
  <text x="325" y="805" text-anchor="middle" class="desc-text">Manage classrooms</text>
  
  <rect x="250" y="830" width="150" height="40" class="channel-box"/>
  <text x="325" y="855" text-anchor="middle" class="desc-text">Access staff spaces</text>
  
  <!-- Staff arrows -->
  <line x1="200" y1="790" x2="250" y2="750" class="staff-flow" marker-end="url(#arrowhead)"/>
  <line x1="200" y1="800" x2="250" y2="800" class="staff-flow" marker-end="url(#arrowhead)"/>
  <line x1="200" y1="810" x2="250" y2="850" class="staff-flow" marker-end="url(#arrowhead)"/>
  
  <!-- Key Design Benefits -->
  <rect x="450" y="730" width="400" height="140" class="action-box"/>
  <text x="650" y="755" text-anchor="middle" class="flow-text">Why This Flow Design Works</text>
  <text x="460" y="780" class="desc-text">🎯 Students get help faster (more helpers available)</text>
  <text x="460" y="800" class="desc-text">🧠 Cross-level learning occurs naturally</text>
  <text x="460" y="820" class="desc-text">👥 Community connections form across courses</text>
  <text x="460" y="840" class="desc-text">📊 Teachers monitor 2 channels vs 20+</text>
  <text x="460" y="860" class="desc-text">⚡ Active discussions are maintained</text>
  
  <!-- Workflow Summary -->
  <rect x="900" y="730" width="650" height="140" class="channel-box"/>
  <text x="1225" y="755" text-anchor="middle" class="flow-text">Complete User Journey Summary</text>
  
  <text x="920" y="780" class="desc-text">1. Student joins → Gets semester role (2025-CS1, 2025-AMC10, etc.)</text>
  <text x="920" y="800" class="desc-text">2. Homework question → Posts in shared forum with appropriate tag</text>
  <text x="920" y="820" class="desc-text">3. Gets help from students at ALL levels → Cross-level learning</text>
  <text x="920" y="840" class="desc-text">4. Class logistics → Uses private classroom for assignments/coordination</text>
  <text x="920" y="860" class="desc-text">5. Community building → Participates in global channels &amp; events</text>
  
  <!-- Footer note -->
  <text x="800" y="950" text-anchor="middle" class="small-text">
    This flow design maximizes learning opportunities while maintaining organized, manageable channels
  </text>
</svg>